<svg id="visual" viewBox="0 0 900 600" width="900" height="600" xmlns="http://www.w3.org/2000/svg" xmlns:xlink="http://www.w3.org/1999/xlink" version="1.1"><g stroke-width="1" stroke-linejoin="bevel"><path d="M412 320L425 406L475 365Z" fill="#b3b3b3" stroke="#b3b3b3"></path><path d="M475 365L500 261L412 320Z" fill="#aeaeae" stroke="#aeaeae"></path><path d="M475 365L562 323L500 261Z" fill="#dddddd" stroke="#dddddd"></path><path d="M630 419L562 323L475 365Z" fill="#b3b3b3" stroke="#b3b3b3"></path><path d="M428 164L300 295L412 320Z" fill="#dddddd" stroke="#dddddd"></path><path d="M412 320L296 426L425 406Z" fill="#e3e3e3" stroke="#e3e3e3"></path><path d="M300 295L296 426L412 320Z" fill="#d1d1d1" stroke="#d1d1d1"></path><path d="M378 534L488 512L425 406Z" fill="#e3e3e3" stroke="#e3e3e3"></path><path d="M425 406L488 512L475 365Z" fill="#bfbfbf" stroke="#bfbfbf"></path><path d="M333 514L378 534L425 406Z" fill="#d1d1d1" stroke="#d1d1d1"></path><path d="M296 426L333 514L425 406Z" fill="#b9b9b9" stroke="#b9b9b9"></path><path d="M488 512L570 491L475 365Z" fill="#dddddd" stroke="#dddddd"></path><path d="M529 183L428 164L500 261Z" fill="#bfbfbf" stroke="#bfbfbf"></path><path d="M500 261L428 164L412 320Z" fill="#b9b9b9" stroke="#b9b9b9"></path><path d="M628 188L529 183L500 261Z" fill="#dddddd" stroke="#dddddd"></path><path d="M300 295L226 399L296 426Z" fill="#dddddd" stroke="#dddddd"></path><path d="M168 479L282 600L333 514Z" fill="#a8a8a8" stroke="#a8a8a8"></path><path d="M570 491L630 419L475 365Z" fill="#c5c5c5" stroke="#c5c5c5"></path><path d="M562 323L628 188L500 261Z" fill="#b9b9b9" stroke="#b9b9b9"></path><path d="M428 164L283 206L300 295Z" fill="#bfbfbf" stroke="#bfbfbf"></path><path d="M300 295L195 315L226 399Z" fill="#d7d7d7" stroke="#d7d7d7"></path><path d="M213 199L195 315L300 295Z" fill="#d1d1d1" stroke="#d1d1d1"></path><path d="M664 477L665 413L630 419Z" fill="#b9b9b9" stroke="#b9b9b9"></path><path d="M630 419L665 413L562 323Z" fill="#bfbfbf" stroke="#bfbfbf"></path><path d="M378 534L476 600L488 512Z" fill="#b3b3b3" stroke="#b3b3b3"></path><path d="M488 512L602 600L570 491Z" fill="#a8a8a8" stroke="#a8a8a8"></path><path d="M570 491L664 477L630 419Z" fill="#dddddd" stroke="#dddddd"></path><path d="M380 600L476 600L378 534Z" fill="#c5c5c5" stroke="#c5c5c5"></path><path d="M282 600L380 600L333 514Z" fill="#cbcbcb" stroke="#cbcbcb"></path><path d="M333 514L380 600L378 534Z" fill="#dddddd" stroke="#dddddd"></path><path d="M529 183L534 138L428 164Z" fill="#a8a8a8" stroke="#a8a8a8"></path><path d="M628 188L534 138L529 183Z" fill="#d1d1d1" stroke="#d1d1d1"></path><path d="M602 600L664 477L570 491Z" fill="#d7d7d7" stroke="#d7d7d7"></path><path d="M715 222L628 188L562 323Z" fill="#cbcbcb" stroke="#cbcbcb"></path><path d="M428 164L384 99L283 206Z" fill="#b3b3b3" stroke="#b3b3b3"></path><path d="M534 138L384 99L428 164Z" fill="#b3b3b3" stroke="#b3b3b3"></path><path d="M283 206L213 199L300 295Z" fill="#dddddd" stroke="#dddddd"></path><path d="M265 70L213 199L283 206Z" fill="#c5c5c5" stroke="#c5c5c5"></path><path d="M168 479L333 514L296 426Z" fill="#dddddd" stroke="#dddddd"></path><path d="M168 479L296 426L226 399Z" fill="#c5c5c5" stroke="#c5c5c5"></path><path d="M76 398L226 399L195 315Z" fill="#cbcbcb" stroke="#cbcbcb"></path><path d="M76 398L168 479L226 399Z" fill="#cbcbcb" stroke="#cbcbcb"></path><path d="M476 600L602 600L488 512Z" fill="#d7d7d7" stroke="#d7d7d7"></path><path d="M791 424L729 337L665 413Z" fill="#cbcbcb" stroke="#cbcbcb"></path><path d="M665 413L729 337L562 323Z" fill="#d1d1d1" stroke="#d1d1d1"></path><path d="M703 80L593 107L628 188Z" fill="#aeaeae" stroke="#aeaeae"></path><path d="M628 188L593 107L534 138Z" fill="#b3b3b3" stroke="#b3b3b3"></path><path d="M536 0L392 0L384 99Z" fill="#b9b9b9" stroke="#b9b9b9"></path><path d="M729 337L715 222L562 323Z" fill="#c5c5c5" stroke="#c5c5c5"></path><path d="M295 0L265 70L384 99Z" fill="#e3e3e3" stroke="#e3e3e3"></path><path d="M384 99L265 70L283 206Z" fill="#d1d1d1" stroke="#d1d1d1"></path><path d="M602 600L669 600L664 477Z" fill="#cbcbcb" stroke="#cbcbcb"></path><path d="M664 477L791 424L665 413Z" fill="#b9b9b9" stroke="#b9b9b9"></path><path d="M116 182L96 286L213 199Z" fill="#e3e3e3" stroke="#e3e3e3"></path><path d="M213 199L96 286L195 315Z" fill="#bfbfbf" stroke="#bfbfbf"></path><path d="M791 424L768 281L729 337Z" fill="#b3b3b3" stroke="#b3b3b3"></path><path d="M729 337L768 281L715 222Z" fill="#aeaeae" stroke="#aeaeae"></path><path d="M168 479L174 600L282 600Z" fill="#d1d1d1" stroke="#d1d1d1"></path><path d="M108 518L174 600L168 479Z" fill="#d7d7d7" stroke="#d7d7d7"></path><path d="M96 286L76 398L195 315Z" fill="#bfbfbf" stroke="#bfbfbf"></path><path d="M76 398L108 518L168 479Z" fill="#d1d1d1" stroke="#d1d1d1"></path><path d="M177 75L116 182L213 199Z" fill="#c5c5c5" stroke="#c5c5c5"></path><path d="M536 0L384 99L534 138Z" fill="#dddddd" stroke="#dddddd"></path><path d="M794 533L791 424L664 477Z" fill="#aeaeae" stroke="#aeaeae"></path><path d="M715 222L703 80L628 188Z" fill="#e3e3e3" stroke="#e3e3e3"></path><path d="M768 281L775 212L715 222Z" fill="#dddddd" stroke="#dddddd"></path><path d="M900 225L775 212L768 281Z" fill="#b3b3b3" stroke="#b3b3b3"></path><path d="M593 107L536 0L534 138Z" fill="#bfbfbf" stroke="#bfbfbf"></path><path d="M603 0L536 0L593 107Z" fill="#a8a8a8" stroke="#a8a8a8"></path><path d="M225 0L177 75L265 70Z" fill="#cbcbcb" stroke="#cbcbcb"></path><path d="M265 70L177 75L213 199Z" fill="#bfbfbf" stroke="#bfbfbf"></path><path d="M392 0L295 0L384 99Z" fill="#c5c5c5" stroke="#c5c5c5"></path><path d="M775 212L703 80L715 222Z" fill="#bfbfbf" stroke="#bfbfbf"></path><path d="M0 600L111 600L108 518Z" fill="#a8a8a8" stroke="#a8a8a8"></path><path d="M108 518L111 600L174 600Z" fill="#c5c5c5" stroke="#c5c5c5"></path><path d="M703 80L603 0L593 107Z" fill="#d7d7d7" stroke="#d7d7d7"></path><path d="M669 600L794 533L664 477Z" fill="#dddddd" stroke="#dddddd"></path><path d="M295 0L225 0L265 70Z" fill="#d1d1d1" stroke="#d1d1d1"></path><path d="M0 187L96 286L116 182Z" fill="#b3b3b3" stroke="#b3b3b3"></path><path d="M0 187L0 330L96 286Z" fill="#bfbfbf" stroke="#bfbfbf"></path><path d="M96 286L0 330L76 398Z" fill="#e3e3e3" stroke="#e3e3e3"></path><path d="M76 398L0 509L108 518Z" fill="#c5c5c5" stroke="#c5c5c5"></path><path d="M69 74L116 182L177 75Z" fill="#d1d1d1" stroke="#d1d1d1"></path><path d="M0 330L0 415L76 398Z" fill="#bfbfbf" stroke="#bfbfbf"></path><path d="M775 212L764 79L703 80Z" fill="#aeaeae" stroke="#aeaeae"></path><path d="M703 80L734 0L603 0Z" fill="#d7d7d7" stroke="#d7d7d7"></path><path d="M0 415L0 509L76 398Z" fill="#b9b9b9" stroke="#b9b9b9"></path><path d="M74 0L69 74L177 75Z" fill="#dddddd" stroke="#dddddd"></path><path d="M69 74L0 187L116 182Z" fill="#b3b3b3" stroke="#b3b3b3"></path><path d="M669 600L830 600L794 533Z" fill="#b3b3b3" stroke="#b3b3b3"></path><path d="M900 430L900 295L791 424Z" fill="#d1d1d1" stroke="#d1d1d1"></path><path d="M791 424L900 295L768 281Z" fill="#aeaeae" stroke="#aeaeae"></path><path d="M775 212L900 136L764 79Z" fill="#cbcbcb" stroke="#cbcbcb"></path><path d="M764 79L734 0L703 80Z" fill="#d1d1d1" stroke="#d1d1d1"></path><path d="M900 430L791 424L900 515Z" fill="#e3e3e3" stroke="#e3e3e3"></path><path d="M764 79L818 0L734 0Z" fill="#dddddd" stroke="#dddddd"></path><path d="M900 515L791 424L794 533Z" fill="#a8a8a8" stroke="#a8a8a8"></path><path d="M900 295L900 225L768 281Z" fill="#e3e3e3" stroke="#e3e3e3"></path><path d="M0 509L0 600L108 518Z" fill="#cbcbcb" stroke="#cbcbcb"></path><path d="M830 600L900 515L794 533Z" fill="#dddddd" stroke="#dddddd"></path><path d="M0 0L0 95L69 74Z" fill="#b3b3b3" stroke="#b3b3b3"></path><path d="M69 74L0 95L0 187Z" fill="#aeaeae" stroke="#aeaeae"></path><path d="M225 0L74 0L177 75Z" fill="#bfbfbf" stroke="#bfbfbf"></path><path d="M900 225L900 136L775 212Z" fill="#c5c5c5" stroke="#c5c5c5"></path><path d="M830 600L900 600L900 515Z" fill="#cbcbcb" stroke="#cbcbcb"></path><path d="M900 136L818 0L764 79Z" fill="#cbcbcb" stroke="#cbcbcb"></path><path d="M74 0L0 0L69 74Z" fill="#cbcbcb" stroke="#cbcbcb"></path><path d="M900 136L900 0L818 0Z" fill="#b9b9b9" stroke="#b9b9b9"></path></g></svg>