<svg id="visual" viewBox="0 0 1920 1080" width="1920" height="1080" xmlns="http://www.w3.org/2000/svg" xmlns:xlink="http://www.w3.org/1999/xlink" version="1.1"><g stroke-width="1" stroke-linejoin="bevel"><path d="M993 563L1268 544L1214 310Z" fill="#c6c6c6" stroke="#c6c6c6"></path><path d="M1214 310L908 208L993 563Z" fill="#bbbbbb" stroke="#bbbbbb"></path><path d="M993 563L1337 746L1268 544Z" fill="#b0b0b0" stroke="#b0b0b0"></path><path d="M1268 544L1650 272L1214 310Z" fill="#ffffff" stroke="#ffffff"></path><path d="M908 208L705 546L993 563Z" fill="#a5a5a5" stroke="#a5a5a5"></path><path d="M993 563L945 850L1337 746Z" fill="#ffffff" stroke="#ffffff"></path><path d="M705 546L945 850L993 563Z" fill="#b0b0b0" stroke="#b0b0b0"></path><path d="M1214 310L976 0L908 208Z" fill="#b0b0b0" stroke="#b0b0b0"></path><path d="M908 208L715 207L705 546Z" fill="#ffffff" stroke="#ffffff"></path><path d="M976 0L715 207L908 208Z" fill="#f3f3f3" stroke="#f3f3f3"></path><path d="M1337 746L1599 614L1268 544Z" fill="#e8e8e8" stroke="#e8e8e8"></path><path d="M1214 310L1342 0L976 0Z" fill="#dcdcdc" stroke="#dcdcdc"></path><path d="M1650 272L1342 0L1214 310Z" fill="#8f8f8f" stroke="#8f8f8f"></path><path d="M1599 614L1650 272L1268 544Z" fill="#8f8f8f" stroke="#8f8f8f"></path><path d="M1337 746L1602 780L1599 614Z" fill="#e8e8e8" stroke="#e8e8e8"></path><path d="M1599 614L1920 585L1650 272Z" fill="#d1d1d1" stroke="#d1d1d1"></path><path d="M1618 1080L1602 780L1337 746Z" fill="#b0b0b0" stroke="#b0b0b0"></path><path d="M945 850L1225 1080L1337 746Z" fill="#9a9a9a" stroke="#9a9a9a"></path><path d="M701 1080L1022 1080L945 850Z" fill="#c6c6c6" stroke="#c6c6c6"></path><path d="M945 850L1022 1080L1225 1080Z" fill="#f3f3f3" stroke="#f3f3f3"></path><path d="M1650 272L1573 0L1342 0Z" fill="#bbbbbb" stroke="#bbbbbb"></path><path d="M368 510L596 876L705 546Z" fill="#e8e8e8" stroke="#e8e8e8"></path><path d="M705 546L596 876L945 850Z" fill="#b0b0b0" stroke="#b0b0b0"></path><path d="M976 0L599 0L715 207Z" fill="#a5a5a5" stroke="#a5a5a5"></path><path d="M715 207L368 510L705 546Z" fill="#d1d1d1" stroke="#d1d1d1"></path><path d="M596 876L701 1080L945 850Z" fill="#bbbbbb" stroke="#bbbbbb"></path><path d="M245 205L368 510L715 207Z" fill="#b0b0b0" stroke="#b0b0b0"></path><path d="M596 876L307 1080L701 1080Z" fill="#c6c6c6" stroke="#c6c6c6"></path><path d="M1225 1080L1618 1080L1337 746Z" fill="#9a9a9a" stroke="#9a9a9a"></path><path d="M1920 786L1920 585L1599 614Z" fill="#f3f3f3" stroke="#f3f3f3"></path><path d="M1920 786L1599 614L1602 780Z" fill="#d1d1d1" stroke="#d1d1d1"></path><path d="M1650 272L1920 0L1573 0Z" fill="#dcdcdc" stroke="#dcdcdc"></path><path d="M1920 585L1920 244L1650 272Z" fill="#e8e8e8" stroke="#e8e8e8"></path><path d="M1618 1080L1920 786L1602 780Z" fill="#b0b0b0" stroke="#b0b0b0"></path><path d="M599 0L390 0L715 207Z" fill="#ffffff" stroke="#ffffff"></path><path d="M390 0L245 205L715 207Z" fill="#ffffff" stroke="#ffffff"></path><path d="M1920 244L1920 0L1650 272Z" fill="#b0b0b0" stroke="#b0b0b0"></path><path d="M0 540L250 841L368 510Z" fill="#b0b0b0" stroke="#b0b0b0"></path><path d="M368 510L250 841L596 876Z" fill="#d1d1d1" stroke="#d1d1d1"></path><path d="M1618 1080L1920 1080L1920 786Z" fill="#dcdcdc" stroke="#dcdcdc"></path><path d="M250 841L307 1080L596 876Z" fill="#bbbbbb" stroke="#bbbbbb"></path><path d="M0 338L0 540L368 510Z" fill="#dcdcdc" stroke="#dcdcdc"></path><path d="M250 841L0 1080L307 1080Z" fill="#b0b0b0" stroke="#b0b0b0"></path><path d="M0 338L368 510L245 205Z" fill="#d1d1d1" stroke="#d1d1d1"></path><path d="M0 0L0 338L245 205Z" fill="#9a9a9a" stroke="#9a9a9a"></path><path d="M0 540L0 742L250 841Z" fill="#f3f3f3" stroke="#f3f3f3"></path><path d="M390 0L0 0L245 205Z" fill="#b0b0b0" stroke="#b0b0b0"></path><path d="M0 742L0 1080L250 841Z" fill="#9a9a9a" stroke="#9a9a9a"></path></g></svg>